<svg width="20" height="20" viewBox="0 0 20 20" fill="none" xmlns="http://www.w3.org/2000/svg">
<g id="icon/navigation/more_horiz_24px">
<path id="icon/navigation/more_horiz_24px_2" fill-rule="evenodd" clip-rule="evenodd" d="M4.99999 8.33334C4.08333 8.33334 3.33333 9.08334 3.33333 10C3.33333 10.9167 4.08333 11.6667 4.99999 11.6667C5.91666 11.6667 6.66666 10.9167 6.66666 10C6.66666 9.08334 5.91666 8.33334 4.99999 8.33334ZM15 8.33334C14.0833 8.33334 13.3333 9.08334 13.3333 10C13.3333 10.9167 14.0833 11.6667 15 11.6667C15.9167 11.6667 16.6667 10.9167 16.6667 10C16.6667 9.08334 15.9167 8.33334 15 8.33334ZM8.33333 10C8.33333 9.08334 9.08333 8.33334 9.99999 8.33334C10.9167 8.33334 11.6667 9.08334 11.6667 10C11.6667 10.9167 10.9167 11.6667 9.99999 11.6667C9.08333 11.6667 8.33333 10.9167 8.33333 10Z" />
</g>
</svg>
